<svg width="52" height="52" viewBox="0 0 52 52" fill="none" xmlns="http://www.w3.org/2000/svg">
<path d="M36.8518 45.4893L15.1852 45.5098C10.4185 45.5142 6.51526 41.6185 6.50984 36.8518L6.48926 15.1852C6.48493 10.4185 10.3806 6.51526 15.1473 6.50984L36.8139 6.48926C41.5806 6.48493 45.4838 10.3806 45.4893 15.1473L45.5098 36.8139C45.5153 41.5817 41.6185 45.4849 36.8518 45.4893Z" fill="url(#paint0_radial_24_515)"/>
<path d="M36.8518 45.4893L15.1852 45.5098C10.4185 45.5142 6.51526 41.6185 6.50984 36.8518L6.48926 15.1852C6.48493 10.4185 10.3806 6.51526 15.1473 6.50984L36.8139 6.48926C41.5806 6.48493 45.4838 10.3806 45.4893 15.1473L45.5098 36.8139C45.5153 41.5817 41.6185 45.4849 36.8518 45.4893Z" fill="url(#paint1_radial_24_515)"/>
<path d="M25.9998 33.5834C21.8193 33.5834 18.4165 30.1817 18.4165 26.0001C18.4165 21.8184 21.8193 18.4167 25.9998 18.4167C30.1804 18.4167 33.5832 21.8184 33.5832 26.0001C33.5832 30.1817 30.1804 33.5834 25.9998 33.5834ZM25.9998 20.5834C23.0131 20.5834 20.5832 23.0133 20.5832 26.0001C20.5832 28.9868 23.0131 31.4167 25.9998 31.4167C28.9866 31.4167 31.4165 28.9868 31.4165 26.0001C31.4165 23.0133 28.9866 20.5834 25.9998 20.5834Z" fill="white"/>
<path d="M34.125 19.5C35.0225 19.5 35.75 18.7725 35.75 17.875C35.75 16.9775 35.0225 16.25 34.125 16.25C33.2275 16.25 32.5 16.9775 32.5 17.875C32.5 18.7725 33.2275 19.5 34.125 19.5Z" fill="white"/>
<path d="M32.4998 40.0834H19.4998C15.3193 40.0834 11.9165 36.6817 11.9165 32.5001V19.5001C11.9165 15.3184 15.3193 11.9167 19.4998 11.9167H32.4998C36.6804 11.9167 40.0832 15.3184 40.0832 19.5001V32.5001C40.0832 36.6817 36.6804 40.0834 32.4998 40.0834ZM19.4998 14.0834C16.5131 14.0834 14.0832 16.5133 14.0832 19.5001V32.5001C14.0832 35.4868 16.5131 37.9167 19.4998 37.9167H32.4998C35.4866 37.9167 37.9165 35.4868 37.9165 32.5001V19.5001C37.9165 16.5133 35.4866 14.0834 32.4998 14.0834H19.4998Z" fill="white"/>
<defs>
<radialGradient id="paint0_radial_24_515" cx="0" cy="0" r="1" gradientUnits="userSpaceOnUse" gradientTransform="translate(20.9951 45.538) scale(48.6406 48.6406)">
<stop stop-color="#FFDD55"/>
<stop offset="0.328" stop-color="#FF543F"/>
<stop offset="0.348" stop-color="#FC5245"/>
<stop offset="0.504" stop-color="#E64771"/>
<stop offset="0.643" stop-color="#D53E91"/>
<stop offset="0.761" stop-color="#CC39A4"/>
<stop offset="0.841" stop-color="#C837AB"/>
</radialGradient>
<radialGradient id="paint1_radial_24_515" cx="0" cy="0" r="1" gradientUnits="userSpaceOnUse" gradientTransform="translate(12.7683 6.00209) scale(32.2974 21.5198)">
<stop stop-color="#4168C9"/>
<stop offset="0.999" stop-color="#4168C9" stop-opacity="0"/>
</radialGradient>
</defs>
</svg>
