<svg width="52" height="52" viewBox="0 0 52 52" fill="none" xmlns="http://www.w3.org/2000/svg">
<rect width="52" height="52" fill="#1E1E1E"/>
<g clip-path="url(#clip0_0_1)">
<rect width="1440" height="4343" transform="translate(-1084 -4026)" fill="#FCFCFC"/>
<rect width="1440" height="407" transform="translate(-1084 -90)" fill="#F7F7F7"/>
<mask id="path-1-inside-1_0_1" fill="white">
<path d="M-1084 -90H356V234H-1084V-90Z"/>
</mask>
<path d="M356 233.5H-1084V234.5H356V233.5Z" fill="#444444" mask="url(#path-1-inside-1_0_1)"/>
<path d="M45.5 40.0833C45.5 43.0755 43.0755 45.5 40.0833 45.5H11.9167C8.92558 45.5 6.5 43.0755 6.5 40.0833V11.9167C6.5 8.9245 8.92558 6.5 11.9167 6.5H40.0833C43.0755 6.5 45.5 8.9245 45.5 11.9167V40.0833Z" fill="#0078D4"/>
<path opacity="0.05" d="M32.4998 40.0834V29.1428C32.4998 27.3131 31.6126 26.22 30.1252 26.22C29.2423 26.22 28.5933 26.7172 28.1979 27.6977C28.1795 27.767 28.1535 28.0497 28.1643 28.9045L28.1665 40.0834H20.5832V19.5001H28.1665V20.6495C29.2737 19.8857 30.6311 19.5001 32.216 19.5001C37.1419 19.5001 40.0821 22.8508 40.0821 28.4636L40.0832 40.0834H32.4998ZM11.9165 40.0834V19.5001H15.6616C13.4917 19.5001 11.9165 17.9054 11.9165 15.7073C11.9165 13.5114 13.5177 11.9167 15.7233 11.9167C17.903 11.9167 19.4554 13.467 19.4998 15.6857C19.4998 17.9 17.8976 19.5001 15.6919 19.5001H19.4998V40.0834H11.9165Z" fill="black"/>
<path opacity="0.07" d="M33.0418 39.5416V29.1427C33.0418 27.0052 31.9249 25.6782 30.1255 25.6782C28.7226 25.6782 28.0292 26.6662 27.6956 27.4949C27.6067 27.7105 27.6187 28.5663 27.623 28.9314L27.6252 39.5416H21.1252V20.0416H27.6252V21.8161C28.4864 20.9245 29.8731 20.0416 32.2163 20.0416C36.8021 20.0416 39.5407 23.1898 39.5407 28.4634L39.5418 39.5416H33.0418ZM12.4585 39.5416V20.0416H18.9585V39.5416H12.4585ZM15.6619 18.9583C13.8062 18.9583 12.4585 17.5911 12.4585 15.7072C12.4585 13.8243 13.8322 12.4583 15.7237 12.4583C17.5913 12.4583 18.9206 13.7897 18.9585 15.6963C18.9585 17.5911 17.5848 18.9583 15.6922 18.9583H15.6619Z" fill="black"/>
<path d="M13 20.5833H18.4167V39H13V20.5833ZM15.6921 18.4167H15.6617C14.0454 18.4167 13 17.212 13 15.7072C13 14.17 14.0779 13 15.7235 13C17.3713 13 18.3863 14.17 18.4167 15.7072C18.4167 17.2109 17.3712 18.4167 15.6921 18.4167ZM39 39H33.5833V29.1427C33.5833 26.7616 32.2563 25.1366 30.1253 25.1366C28.4993 25.1366 27.6196 26.2329 27.1927 27.2924C27.0368 27.6716 27.0833 28.7203 27.0833 29.25V39H21.6667V20.5833H27.0833V23.4173C27.8644 22.2083 29.0875 20.5833 32.2162 20.5833C36.0923 20.5833 38.9989 23.0208 38.9989 28.4635L39 39Z" fill="white"/>
</g>
<defs>
<clipPath id="clip0_0_1">
<rect width="1440" height="4343" fill="white" transform="translate(-1084 -4026)"/>
</clipPath>
</defs>
</svg>
