<svg width="32" height="32" viewBox="0 0 32 32" fill="none" xmlns="http://www.w3.org/2000/svg">
<g clip-path="url(#clip0_170_257)">
<path d="M1.77778 26.3333H30.2222C31.2 26.3333 32 25.5333 32 24.5556C32 23.5778 31.2 22.7778 30.2222 22.7778H1.77778C0.8 22.7778 0 23.5778 0 24.5556C0 25.5333 0.8 26.3333 1.77778 26.3333ZM1.77778 17.4444H30.2222C31.2 17.4444 32 16.6444 32 15.6667C32 14.6889 31.2 13.8889 30.2222 13.8889H1.77778C0.8 13.8889 0 14.6889 0 15.6667C0 16.6444 0.8 17.4444 1.77778 17.4444ZM0 6.77778C0 7.75556 0.8 8.55556 1.77778 8.55556H30.2222C31.2 8.55556 32 7.75556 32 6.77778C32 5.8 31.2 5 30.2222 5H1.77778C0.8 5 0 5.8 0 6.77778Z" fill="#393939"/>
</g>
<defs>
<clipPath id="clip0_170_257">
<rect width="32" height="32" fill="white"/>
</clipPath>
</defs>
</svg>
