<svg width="40" height="40" viewBox="0 0 40 40" fill="none" xmlns="http://www.w3.org/2000/svg">
<g id="question" clip-path="url(#clip0_55_128)">
<g id="Question">
<path id="Vector" d="M20 0C16.0444 0 12.1776 1.17298 8.8886 3.37061C5.59962 5.56824 3.03617 8.69181 1.52242 12.3463C0.00866562 16.0009 -0.387401 20.0222 0.384303 23.9018C1.15601 27.7814 3.06082 31.3451 5.85787 34.1421C8.65492 36.9392 12.2186 38.844 16.0982 39.6157C19.9778 40.3874 23.9992 39.9913 27.6537 38.4776C31.3082 36.9638 34.4318 34.4004 36.6294 31.1114C38.827 27.8224 40 23.9556 40 20C39.9937 14.6976 37.8846 9.61417 34.1352 5.86481C30.3858 2.11544 25.3024 0.00628541 20 0ZM20 37.5C16.5388 37.5 13.1554 36.4736 10.2775 34.5507C7.39967 32.6278 5.15665 29.8947 3.83212 26.697C2.50758 23.4993 2.16103 19.9806 2.83627 16.5859C3.51151 13.1913 5.17822 10.073 7.62564 7.62563C10.0731 5.17821 13.1913 3.5115 16.5859 2.83626C19.9806 2.16102 23.4993 2.50757 26.697 3.83211C29.8947 5.15664 32.6278 7.39966 34.5507 10.2775C36.4737 13.1554 37.5 16.5388 37.5 20C37.495 24.6398 35.6497 29.0881 32.3689 32.3689C29.0881 35.6497 24.6398 37.495 20 37.5Z" fill="#888888"/>
<path id="Vector_2" d="M20 7.5C18.0115 7.50199 16.105 8.2928 14.6989 9.69889C13.2928 11.105 12.502 13.0115 12.5 15H15C15 13.6739 15.5268 12.4021 16.4645 11.4645C17.4021 10.5268 18.6739 10 20 10C21.201 9.99882 22.3622 10.4299 23.2715 11.2145C24.1807 11.9991 24.7772 13.0848 24.9518 14.273C25.1264 15.4612 24.8675 16.6726 24.2225 17.6856C23.5774 18.6986 22.5893 19.4456 21.4387 19.79C20.6628 20.0158 19.9811 20.4874 19.4962 21.1339C19.0114 21.7804 18.7495 22.5669 18.75 23.375V27.5H21.25V23.375C21.2524 23.1051 21.342 22.8432 21.5056 22.6284C21.6692 22.4137 21.8979 22.2577 22.1575 22.1838C23.8822 21.6664 25.3632 20.5458 26.33 19.0266C27.2967 17.5075 27.6847 15.6913 27.4229 13.9097C27.1611 12.1282 26.2672 10.5003 24.9043 9.32346C23.5414 8.14662 21.8007 7.49938 20 7.5Z" fill="#888888"/>
<path id="Vector_3" d="M21.25 30H18.75V32.5H21.25V30Z" fill="#888888"/>
</g>
</g>
<defs>
<clipPath id="clip0_55_128">
<rect width="40" height="40" fill="white"/>
</clipPath>
</defs>
</svg>
