<?xml version="1.0" encoding="UTF-8"?>
<svg id="Layer_2" data-name="Layer 2" xmlns="http://www.w3.org/2000/svg" viewBox="0 0 1833 837.39">
  <defs>
    <style>
      .cls-1 {
        fill: #ffdf60;
      }

      .cls-2 {
        fill: #8a52fe;
      }

      .cls-3 {
        fill: #ff9247;
      }

      .cls-4 {
        fill: #fe6ac1;
      }
    </style>
  </defs>
  <g id="supernova">
    <path class="cls-1" d="m401.6,834.39H120.44l.23-239.36h.29c141.69,0,259.16,103.7,280.64,239.36Z"/>
    <path class="cls-2" d="m445.97,837.39c.26,0,.51,0,.77,0,144.98,0,262.51-117.53,262.51-262.51s-117.53-262.51-262.51-262.51c-.09,0-.17,0-.26,0"/>
    <circle class="cls-4" cx="564.46" cy="194.31" r="117.71"/>
    <path class="cls-3" d="m403.44,648.27c-.28,0-.55,0-.83,0-156.77,0-283.86-127.09-283.86-283.86S245.84,80.55,402.61,80.55c.09,0,.19,0,.28,0"/>
  </g>
</svg>