<svg width="52" height="52" viewBox="0 0 52 52" fill="none" xmlns="http://www.w3.org/2000/svg">
<path d="M45.4998 13.4647C44.0666 14.0996 42.525 14.5232 40.8989 14.7236C42.5521 13.7421 43.8239 12.1767 44.4208 10.3274C42.8738 11.2342 41.16 11.9004 39.3367 12.2514C37.8807 10.7077 35.804 9.75 33.503 9.75C29.083 9.75 25.5004 13.3012 25.5004 17.68C25.5004 18.2997 25.573 18.9031 25.7095 19.4892C19.06 19.1555 13.1623 15.9943 9.21683 11.1973C8.5235 12.3695 8.1335 13.7421 8.1335 15.1905C8.1335 17.9432 9.54292 20.3667 11.6922 21.7945C10.3803 21.7544 9.14533 21.3893 8.06416 20.8043C8.06416 20.8282 8.06416 20.8639 8.06416 20.8975C8.06416 24.7444 10.8234 27.9478 14.4807 28.6769C13.8123 28.86 13.106 28.9618 12.378 28.9618C11.8612 28.9618 11.3575 28.9033 10.87 28.8156C11.8883 31.9594 14.8426 34.2572 18.3428 34.3254C15.6042 36.4487 12.1548 37.7206 8.40433 37.7206C7.7565 37.7206 7.12275 37.6837 6.49658 37.6079C10.0402 39.8515 14.2478 41.1667 18.7642 41.1667C33.4813 41.1667 41.5327 29.081 41.5327 18.5965C41.5327 18.2531 41.5218 17.9108 41.5056 17.5728C43.0764 16.4634 44.4306 15.0637 45.4998 13.4647Z" fill="#03A9F4"/>
</svg>
