<svg width="52" height="52" viewBox="0 0 52 52" fill="none" xmlns="http://www.w3.org/2000/svg">
<path d="M46.8002 36.725C46.3668 39 44.5252 40.7333 42.2502 41.0583C38.6752 41.6 32.7168 42.25 26.0002 42.25C19.3918 42.25 13.4335 41.6 9.75016 41.0583C7.47516 40.7333 5.6335 39 5.20016 36.725C4.76683 34.2333 4.3335 30.55 4.3335 26C4.3335 21.45 4.76683 17.7667 5.20016 15.275C5.6335 13 7.47516 11.2667 9.75016 10.9417C13.3252 10.4 19.2835 9.75 26.0002 9.75C32.7168 9.75 38.5668 10.4 42.2502 10.9417C44.5252 11.2667 46.3668 13 46.8002 15.275C47.2335 17.7667 47.7752 21.45 47.7752 26C47.6668 30.55 47.2335 34.2333 46.8002 36.725Z" fill="#FF3D00"/>
<path d="M21.6665 33.5834V18.4167L34.6665 26.0001L21.6665 33.5834Z" fill="white"/>
</svg>
